<svg width="424" height="263" viewBox="0 0 424 263" fill="none" xmlns="http://www.w3.org/2000/svg">
<g filter="url(#filter0_d_13507_1793)">
<path d="M30 26H392.08V129.415L394 229H30V26Z" fill="#F9F9F9"/>
</g>
<path d="M156.031 163V171H155.063V163H156.031ZM157.974 163H159.13L161.849 169.641H161.942L164.661 163H165.817V171H164.911V164.922H164.833L162.333 171H161.458L158.958 164.922H158.88V171H157.974V163ZM168.088 171H167.072L170.01 163H171.01L173.947 171H172.932L170.541 164.266H170.479L168.088 171ZM168.463 167.875H172.557V168.734H168.463V167.875ZM180.286 165.5C180.2 165.237 180.087 165.001 179.946 164.793C179.808 164.582 179.643 164.402 179.45 164.254C179.26 164.105 179.044 163.992 178.802 163.914C178.56 163.836 178.294 163.797 178.005 163.797C177.531 163.797 177.1 163.919 176.712 164.164C176.324 164.409 176.015 164.77 175.786 165.246C175.557 165.723 175.442 166.307 175.442 167C175.442 167.693 175.558 168.277 175.79 168.754C176.022 169.23 176.336 169.591 176.731 169.836C177.127 170.081 177.573 170.203 178.067 170.203C178.526 170.203 178.929 170.105 179.278 169.91C179.63 169.712 179.903 169.434 180.099 169.074C180.297 168.712 180.396 168.286 180.396 167.797L180.692 167.859H178.286V167H181.333V167.859C181.333 168.518 181.192 169.091 180.911 169.578C180.632 170.065 180.247 170.443 179.755 170.711C179.265 170.977 178.703 171.109 178.067 171.109C177.359 171.109 176.737 170.943 176.2 170.609C175.666 170.276 175.25 169.802 174.95 169.187C174.653 168.573 174.505 167.844 174.505 167C174.505 166.367 174.59 165.798 174.759 165.293C174.931 164.785 175.173 164.353 175.485 163.996C175.798 163.639 176.168 163.366 176.595 163.176C177.022 162.986 177.492 162.891 178.005 162.891C178.427 162.891 178.82 162.954 179.185 163.082C179.552 163.207 179.879 163.385 180.165 163.617C180.454 163.846 180.695 164.121 180.888 164.441C181.08 164.759 181.213 165.112 181.286 165.5H180.286ZM182.992 171V163H187.82V163.859H183.961V166.562H187.57V167.422H183.961V170.141H187.883V171H182.992ZM199.004 163V171H198.066L193.707 164.719H193.629V171H192.66V163H193.598L197.973 169.297H198.051V163H199.004ZM207.692 167C207.692 167.844 207.54 168.573 207.235 169.187C206.931 169.802 206.513 170.276 205.981 170.609C205.45 170.943 204.843 171.109 204.161 171.109C203.479 171.109 202.872 170.943 202.341 170.609C201.81 170.276 201.392 169.802 201.087 169.187C200.782 168.573 200.63 167.844 200.63 167C200.63 166.156 200.782 165.427 201.087 164.812C201.392 164.198 201.81 163.724 202.341 163.391C202.872 163.057 203.479 162.891 204.161 162.891C204.843 162.891 205.45 163.057 205.981 163.391C206.513 163.724 206.931 164.198 207.235 164.812C207.54 165.427 207.692 166.156 207.692 167ZM206.755 167C206.755 166.307 206.639 165.723 206.407 165.246C206.178 164.77 205.867 164.409 205.474 164.164C205.083 163.919 204.646 163.797 204.161 163.797C203.677 163.797 203.238 163.919 202.845 164.164C202.454 164.409 202.143 164.77 201.911 165.246C201.682 165.723 201.567 166.307 201.567 167C201.567 167.693 201.682 168.277 201.911 168.754C202.143 169.23 202.454 169.591 202.845 169.836C203.238 170.081 203.677 170.203 204.161 170.203C204.646 170.203 205.083 170.081 205.474 169.836C205.867 169.591 206.178 169.23 206.407 168.754C206.639 168.277 206.755 167.693 206.755 167ZM208.551 163.859V163H214.551V163.859H212.035V171H211.066V163.859H208.551ZM219.468 171H218.452L221.39 163H222.39L225.327 171H224.312L221.921 164.266H221.858L219.468 171ZM219.843 167.875H223.937V168.734H219.843V167.875ZM226.149 163L228.524 169.734H228.618L230.993 163H232.009L229.071 171H228.071L225.134 163H226.149ZM232.896 171H231.88L234.817 163H235.817L238.755 171H237.739L235.349 164.266H235.286L232.896 171ZM233.271 167.875H237.364V168.734H233.271V167.875ZM240.97 163V171H240.001V163H240.97ZM242.912 171V163H243.881V170.141H247.6V171H242.912ZM249.933 171H248.917L251.854 163H252.854L255.792 171H254.776L252.386 164.266H252.323L249.933 171ZM250.308 167.875H254.401V168.734H250.308V167.875ZM257.038 171V163H259.835C260.392 163 260.852 163.096 261.214 163.289C261.576 163.479 261.845 163.736 262.022 164.059C262.2 164.379 262.288 164.734 262.288 165.125C262.288 165.469 262.227 165.753 262.104 165.977C261.985 166.201 261.826 166.378 261.628 166.508C261.433 166.638 261.22 166.734 260.991 166.797V166.875C261.236 166.891 261.482 166.977 261.729 167.133C261.977 167.289 262.184 167.513 262.351 167.805C262.517 168.096 262.601 168.453 262.601 168.875C262.601 169.276 262.509 169.637 262.327 169.957C262.145 170.277 261.857 170.531 261.464 170.719C261.071 170.906 260.559 171 259.929 171H257.038ZM258.007 170.141H259.929C260.562 170.141 261.011 170.018 261.276 169.773C261.545 169.526 261.679 169.227 261.679 168.875C261.679 168.604 261.61 168.354 261.472 168.125C261.334 167.893 261.137 167.708 260.882 167.57C260.627 167.43 260.325 167.359 259.976 167.359H258.007V170.141ZM258.007 166.516H259.804C260.095 166.516 260.358 166.458 260.593 166.344C260.83 166.229 261.017 166.068 261.155 165.859C261.296 165.651 261.366 165.406 261.366 165.125C261.366 164.773 261.244 164.475 260.999 164.23C260.754 163.983 260.366 163.859 259.835 163.859H258.007V166.516ZM264.192 171V163H265.161V170.141H268.88V171H264.192ZM270.38 171V163H275.208V163.859H271.349V166.562H274.958V167.422H271.349V170.141H275.271V171H270.38Z" fill="#A0A0A0"/>
<path d="M158.066 110L154.401 105.11H153.24V110H151.594V99.0909H153.24V103.699H153.778L157.901 99.0909H159.909L155.546 103.975L160.074 110H158.066ZM174.629 102.638H172.967C172.903 102.283 172.785 101.971 172.611 101.701C172.437 101.431 172.223 101.202 171.971 101.014C171.719 100.826 171.437 100.684 171.124 100.588C170.815 100.492 170.487 100.444 170.139 100.444C169.51 100.444 168.948 100.602 168.45 100.918C167.957 101.234 167.566 101.697 167.278 102.308C166.994 102.919 166.852 103.665 166.852 104.545C166.852 105.433 166.994 106.183 167.278 106.793C167.566 107.404 167.959 107.866 168.456 108.178C168.953 108.491 169.512 108.647 170.134 108.647C170.478 108.647 170.805 108.601 171.114 108.509C171.426 108.413 171.709 108.272 171.961 108.088C172.213 107.903 172.426 107.678 172.6 107.411C172.777 107.141 172.9 106.832 172.967 106.484L174.629 106.49C174.541 107.026 174.368 107.52 174.113 107.971C173.861 108.418 173.536 108.805 173.138 109.132C172.744 109.455 172.293 109.705 171.785 109.883C171.277 110.06 170.723 110.149 170.123 110.149C169.178 110.149 168.337 109.925 167.598 109.478C166.859 109.027 166.277 108.382 165.851 107.544C165.428 106.706 165.217 105.707 165.217 104.545C165.217 103.381 165.43 102.381 165.856 101.547C166.282 100.708 166.865 100.066 167.603 99.6183C168.342 99.1673 169.182 98.9418 170.123 98.9418C170.702 98.9418 171.242 99.0252 171.742 99.1921C172.247 99.3555 172.699 99.5969 173.101 99.9165C173.502 100.233 173.834 100.62 174.097 101.078C174.359 101.532 174.537 102.053 174.629 102.638ZM186.075 104.545C186.075 105.71 185.862 106.712 185.436 107.55C185.01 108.384 184.426 109.027 183.683 109.478C182.945 109.925 182.105 110.149 181.164 110.149C180.219 110.149 179.376 109.925 178.634 109.478C177.895 109.027 177.313 108.382 176.887 107.544C176.46 106.706 176.247 105.707 176.247 104.545C176.247 103.381 176.46 102.381 176.887 101.547C177.313 100.708 177.895 100.066 178.634 99.6183C179.376 99.1673 180.219 98.9418 181.164 98.9418C182.105 98.9418 182.945 99.1673 183.683 99.6183C184.426 100.066 185.01 100.708 185.436 101.547C185.862 102.381 186.075 103.381 186.075 104.545ZM184.445 104.545C184.445 103.658 184.301 102.91 184.014 102.303C183.73 101.692 183.339 101.23 182.842 100.918C182.348 100.602 181.789 100.444 181.164 100.444C180.535 100.444 179.974 100.602 179.481 100.918C178.987 101.23 178.596 101.692 178.309 102.303C178.025 102.91 177.883 103.658 177.883 104.545C177.883 105.433 178.025 106.183 178.309 106.793C178.596 107.401 178.987 107.862 179.481 108.178C179.974 108.491 180.535 108.647 181.164 108.647C181.789 108.647 182.348 108.491 182.842 108.178C183.339 107.862 183.73 107.401 184.014 106.793C184.301 106.183 184.445 105.433 184.445 104.545ZM194.908 99.0909V110H193.278V99.0909H194.908ZM187.051 110L190.546 104.29L187.296 99.0909H189.31L192.016 103.81H196.208L198.892 99.0909H200.901L197.662 104.3L201.135 110H199.212L196.469 105.344H191.733L188.953 110H187.051ZM203.668 110H201.921L205.847 99.0909H207.748L211.674 110H209.927L206.843 101.072H206.757L203.668 110ZM203.961 105.728H209.628V107.113H203.961V105.728ZM212.424 110V108.572L212.743 108.562C213.176 108.551 213.517 108.404 213.766 108.12C214.018 107.836 214.201 107.377 214.315 106.745C214.432 106.113 214.51 105.27 214.549 104.215L214.735 99.0909H221.634V110H220.009V100.487H216.286L216.115 104.652C216.069 105.82 215.952 106.802 215.763 107.598C215.575 108.39 215.256 108.988 214.805 109.393C214.357 109.798 213.72 110 212.892 110H212.424ZM224.031 110V99.0909H230.87V100.508H225.676V103.832H230.513V105.243H225.676V108.583H230.934V110H224.031ZM233.069 110V99.0909H234.715V103.832H240.153V99.0909H241.804V110H240.153V105.243H234.715V110H233.069ZM244.201 99.0909H245.831V107.102H245.933L251.483 99.0909H253.006V110H251.361V101.999H251.259L245.72 110H244.201V99.0909ZM257.053 99.0909V110H255.407V99.0909H257.053ZM259.424 103.986V105.366H256.041V103.986H259.424ZM268.756 104.545C268.756 105.71 268.543 106.712 268.117 107.55C267.691 108.384 267.107 109.027 266.365 109.478C265.626 109.925 264.786 110.149 263.845 110.149C262.9 110.149 262.057 109.925 261.315 109.478C260.576 109.027 259.994 108.382 259.568 107.544C259.142 106.706 258.928 105.707 258.928 104.545C258.928 103.381 259.142 102.381 259.568 101.547C259.994 100.708 260.576 100.066 261.315 99.6183C262.057 99.1673 262.9 98.9418 263.845 98.9418C264.786 98.9418 265.626 99.1673 266.365 99.6183C267.107 100.066 267.691 100.708 268.117 101.547C268.543 102.381 268.756 103.381 268.756 104.545ZM267.126 104.545C267.126 103.658 266.982 102.91 266.695 102.303C266.411 101.692 266.02 101.23 265.523 100.918C265.029 100.602 264.47 100.444 263.845 100.444C263.216 100.444 262.655 100.602 262.162 100.918C261.668 101.23 261.278 101.692 260.99 102.303C260.706 102.91 260.564 103.658 260.564 104.545C260.564 105.433 260.706 106.183 260.99 106.793C261.278 107.401 261.668 107.862 262.162 108.178C262.655 108.491 263.216 108.647 263.845 108.647C264.47 108.647 265.029 108.491 265.523 108.178C266.02 107.862 266.411 107.401 266.695 106.793C266.982 106.183 267.126 105.433 267.126 104.545ZM97.3289 117.091H98.9589V125.102H99.0601L104.61 117.091H106.134V128H104.488V119.999H104.387L98.847 128H97.3289V117.091ZM112.184 128.149C111.452 128.149 110.799 128.023 110.223 127.771C109.652 127.519 109.199 127.169 108.865 126.722C108.535 126.271 108.357 125.749 108.333 125.156H110.005C110.026 125.479 110.135 125.759 110.33 125.997C110.529 126.232 110.788 126.413 111.108 126.54C111.427 126.668 111.782 126.732 112.173 126.732C112.603 126.732 112.983 126.658 113.313 126.509C113.647 126.359 113.908 126.152 114.096 125.885C114.284 125.615 114.378 125.305 114.378 124.953C114.378 124.587 114.284 124.266 114.096 123.989C113.911 123.708 113.64 123.488 113.281 123.328C112.926 123.169 112.496 123.089 111.992 123.089H111.07V121.746H111.992C112.397 121.746 112.752 121.674 113.057 121.528C113.366 121.382 113.608 121.18 113.782 120.921C113.956 120.658 114.043 120.351 114.043 119.999C114.043 119.662 113.966 119.369 113.814 119.12C113.665 118.868 113.451 118.671 113.174 118.529C112.901 118.387 112.578 118.316 112.205 118.316C111.85 118.316 111.518 118.382 111.209 118.513C110.904 118.641 110.655 118.826 110.463 119.067C110.271 119.305 110.168 119.591 110.154 119.925H108.562C108.579 119.335 108.753 118.817 109.084 118.369C109.417 117.922 109.858 117.572 110.405 117.32C110.951 117.068 111.559 116.942 112.226 116.942C112.926 116.942 113.53 117.078 114.037 117.352C114.549 117.622 114.943 117.982 115.22 118.433C115.5 118.884 115.639 119.378 115.635 119.914C115.639 120.525 115.469 121.043 115.124 121.469C114.783 121.896 114.329 122.181 113.76 122.327V122.412C114.485 122.522 115.046 122.81 115.444 123.275C115.845 123.74 116.044 124.317 116.04 125.006C116.044 125.607 115.877 126.145 115.54 126.62C115.206 127.096 114.749 127.471 114.171 127.744C113.592 128.014 112.929 128.149 112.184 128.149ZM127.679 122.545C127.679 123.71 127.466 124.712 127.04 125.55C126.614 126.384 126.03 127.027 125.287 127.478C124.549 127.925 123.709 128.149 122.768 128.149C121.823 128.149 120.98 127.925 120.238 127.478C119.499 127.027 118.917 126.382 118.491 125.544C118.064 124.706 117.851 123.707 117.851 122.545C117.851 121.381 118.064 120.381 118.491 119.547C118.917 118.708 119.499 118.066 120.238 117.618C120.98 117.167 121.823 116.942 122.768 116.942C123.709 116.942 124.549 117.167 125.287 117.618C126.03 118.066 126.614 118.708 127.04 119.547C127.466 120.381 127.679 121.381 127.679 122.545ZM126.049 122.545C126.049 121.658 125.905 120.91 125.618 120.303C125.334 119.692 124.943 119.23 124.446 118.918C123.952 118.602 123.393 118.444 122.768 118.444C122.139 118.444 121.578 118.602 121.085 118.918C120.591 119.23 120.2 119.692 119.913 120.303C119.629 120.91 119.487 121.658 119.487 122.545C119.487 123.433 119.629 124.183 119.913 124.793C120.2 125.401 120.591 125.862 121.085 126.178C121.578 126.491 122.139 126.647 122.768 126.647C123.393 126.647 123.952 126.491 124.446 126.178C124.943 125.862 125.334 125.401 125.618 124.793C125.905 124.183 126.049 123.433 126.049 122.545ZM129.731 128V117.091H136.533V118.508H131.377V121.491H133.817C134.626 121.491 135.314 121.622 135.878 121.885C136.446 122.148 136.88 122.519 137.178 122.998C137.48 123.478 137.631 124.042 137.631 124.692C137.631 125.342 137.48 125.915 137.178 126.413C136.88 126.91 136.446 127.299 135.878 127.579C135.314 127.86 134.626 128 133.817 128H129.731ZM131.377 126.615H133.817C134.286 126.615 134.682 126.523 135.005 126.338C135.331 126.153 135.578 125.914 135.745 125.619C135.916 125.324 136.001 125.008 136.001 124.671C136.001 124.181 135.813 123.76 135.436 123.408C135.06 123.053 134.52 122.876 133.817 122.876H131.377V126.615ZM139.575 128V117.091H143.463C144.312 117.091 145.015 117.245 145.573 117.554C146.13 117.863 146.548 118.286 146.825 118.822C147.102 119.355 147.24 119.955 147.24 120.623C147.24 121.294 147.1 121.897 146.819 122.434C146.542 122.966 146.123 123.389 145.562 123.701C145.005 124.01 144.303 124.165 143.458 124.165H140.784V122.769H143.309C143.845 122.769 144.28 122.677 144.614 122.492C144.948 122.304 145.193 122.048 145.349 121.725C145.505 121.402 145.583 121.034 145.583 120.623C145.583 120.211 145.505 119.845 145.349 119.525C145.193 119.206 144.946 118.955 144.609 118.774C144.275 118.593 143.835 118.502 143.288 118.502H141.221V128H139.575ZM148.934 128H147.187L151.113 117.091H153.014L156.94 128H155.193L152.109 119.072H152.023L148.934 128ZM149.227 123.728H154.895V125.113H149.227V123.728ZM165.589 117.091V128H163.959V117.091H165.589ZM157.732 128L161.227 122.29L157.977 117.091H159.991L162.697 121.81H166.889L169.574 117.091H171.582L168.343 122.3L171.816 128H169.893L167.15 123.344H162.415L159.634 128H157.732ZM173.428 128V117.091H180.267V118.508H175.073V121.832H179.91V123.243H175.073V126.583H180.331V128H173.428ZM182.466 128V117.091H184.112V121.832H189.55V117.091H191.201V128H189.55V123.243H184.112V128H182.466ZM193.598 117.091H195.228V125.102H195.33L200.88 117.091H202.403V128H200.758V119.999H200.656L195.117 128H193.598V117.091ZM204.804 128V117.091H211.644V118.508H206.45V121.832H211.287V123.243H206.45V126.583H211.708V128H204.804ZM217.812 128V117.091H219.458V121.832H224.897V117.091H226.548V128H224.897V123.243H219.458V128H217.812ZM228.945 128V117.091H235.785V118.508H230.591V121.832H235.428V123.243H230.591V126.583H235.849V128H228.945ZM237.158 130.637V126.604H237.877C238.122 126.398 238.351 126.105 238.564 125.725C238.777 125.346 238.958 124.832 239.107 124.186C239.256 123.54 239.359 122.711 239.416 121.699L239.672 117.091H246.399V126.604H247.635V130.621H246.058V128H238.734V130.637H237.158ZM239.816 126.604H244.823V118.508H241.163L240.993 121.699C240.947 122.469 240.87 123.162 240.764 123.776C240.661 124.39 240.528 124.934 240.364 125.406C240.204 125.875 240.022 126.274 239.816 126.604ZM258.914 122.545C258.914 123.71 258.701 124.712 258.275 125.55C257.849 126.384 257.265 127.027 256.523 127.478C255.784 127.925 254.944 128.149 254.003 128.149C253.059 128.149 252.215 127.925 251.473 127.478C250.734 127.027 250.152 126.382 249.726 125.544C249.3 124.706 249.087 123.707 249.087 122.545C249.087 121.381 249.3 120.381 249.726 119.547C250.152 118.708 250.734 118.066 251.473 117.618C252.215 117.167 253.059 116.942 254.003 116.942C254.944 116.942 255.784 117.167 256.523 117.618C257.265 118.066 257.849 118.708 258.275 119.547C258.701 120.381 258.914 121.381 258.914 122.545ZM257.284 122.545C257.284 121.658 257.141 120.91 256.853 120.303C256.569 119.692 256.178 119.23 255.681 118.918C255.188 118.602 254.628 118.444 254.003 118.444C253.375 118.444 252.814 118.602 252.32 118.918C251.826 119.23 251.436 119.692 251.148 120.303C250.864 120.91 250.722 121.658 250.722 122.545C250.722 123.433 250.864 124.183 251.148 124.793C251.436 125.401 251.826 125.862 252.32 126.178C252.814 126.491 253.375 126.647 254.003 126.647C254.628 126.647 255.188 126.491 255.681 126.178C256.178 125.862 256.569 125.401 256.853 124.793C257.141 124.183 257.284 123.433 257.284 122.545ZM270.027 120.638H268.365C268.301 120.283 268.182 119.971 268.008 119.701C267.834 119.431 267.621 119.202 267.369 119.014C267.117 118.826 266.835 118.684 266.522 118.588C266.213 118.492 265.885 118.444 265.537 118.444C264.908 118.444 264.345 118.602 263.848 118.918C263.355 119.234 262.964 119.697 262.676 120.308C262.392 120.919 262.25 121.665 262.25 122.545C262.25 123.433 262.392 124.183 262.676 124.793C262.964 125.404 263.356 125.866 263.854 126.178C264.351 126.491 264.91 126.647 265.532 126.647C265.876 126.647 266.203 126.601 266.512 126.509C266.824 126.413 267.106 126.272 267.359 126.088C267.611 125.903 267.824 125.678 267.998 125.411C268.175 125.141 268.298 124.832 268.365 124.484L270.027 124.49C269.939 125.026 269.766 125.52 269.511 125.971C269.258 126.418 268.934 126.805 268.536 127.132C268.142 127.455 267.691 127.705 267.183 127.883C266.675 128.06 266.121 128.149 265.521 128.149C264.576 128.149 263.735 127.925 262.996 127.478C262.257 127.027 261.675 126.382 261.249 125.544C260.826 124.706 260.615 123.707 260.615 122.545C260.615 121.381 260.828 120.381 261.254 119.547C261.68 118.708 262.263 118.066 263.001 117.618C263.74 117.167 264.58 116.942 265.521 116.942C266.1 116.942 266.64 117.025 267.14 117.192C267.644 117.355 268.097 117.597 268.499 117.917C268.9 118.233 269.232 118.62 269.495 119.078C269.757 119.532 269.935 120.053 270.027 120.638ZM271.459 118.508V117.091H279.902V118.508H276.498V128H274.857V118.508H271.459ZM282.54 128.149V126.7H283.195C283.468 126.7 283.694 126.654 283.871 126.562C284.053 126.469 284.2 126.345 284.314 126.189C284.431 126.029 284.528 125.855 284.606 125.667L284.761 125.278L280.926 117.091H282.673L285.533 123.398L288.08 117.091H289.805L286.034 126.109C285.874 126.471 285.69 126.807 285.48 127.116C285.274 127.425 284.999 127.675 284.654 127.867C284.31 128.055 283.854 128.149 283.285 128.149H282.54ZM299.89 117.091V128H298.25V118.497H293.115V128H291.474V117.091H299.89ZM302.407 128V117.091H304.053V121.832H309.492V117.091H311.143V128H309.492V123.243H304.053V128H302.407ZM323.016 122.545C323.016 123.71 322.803 124.712 322.377 125.55C321.951 126.384 321.367 127.027 320.624 127.478C319.886 127.925 319.046 128.149 318.105 128.149C317.16 128.149 316.317 127.925 315.575 127.478C314.836 127.027 314.254 126.382 313.827 125.544C313.401 124.706 313.188 123.707 313.188 122.545C313.188 121.381 313.401 120.381 313.827 119.547C314.254 118.708 314.836 118.066 315.575 117.618C316.317 117.167 317.16 116.942 318.105 116.942C319.046 116.942 319.886 117.167 320.624 117.618C321.367 118.066 321.951 118.708 322.377 119.547C322.803 120.381 323.016 121.381 323.016 122.545ZM321.386 122.545C321.386 121.658 321.242 120.91 320.955 120.303C320.67 119.692 320.28 119.23 319.783 118.918C319.289 118.602 318.73 118.444 318.105 118.444C317.476 118.444 316.915 118.602 316.422 118.918C315.928 119.23 315.537 119.692 315.25 120.303C314.966 120.91 314.824 121.658 314.824 122.545C314.824 123.433 314.966 124.183 315.25 124.793C315.537 125.401 315.928 125.862 316.422 126.178C316.915 126.491 317.476 126.647 318.105 126.647C318.73 126.647 319.289 126.491 319.783 126.178C320.28 125.862 320.67 125.401 320.955 124.793C321.242 124.183 321.386 123.433 321.386 122.545Z" fill="black"/>
<defs>
<filter id="filter0_d_13507_1793" x="0" y="0" width="424" height="263" filterUnits="userSpaceOnUse" color-interpolation-filters="sRGB">
<feFlood flood-opacity="0" result="BackgroundImageFix"/>
<feColorMatrix in="SourceAlpha" type="matrix" values="0 0 0 0 0 0 0 0 0 0 0 0 0 0 0 0 0 0 127 0" result="hardAlpha"/>
<feOffset dy="4"/>
<feGaussianBlur stdDeviation="15"/>
<feColorMatrix type="matrix" values="0 0 0 0 0 0 0 0 0 0 0 0 0 0 0 0 0 0 0.08 0"/>
<feBlend mode="normal" in2="BackgroundImageFix" result="effect1_dropShadow_13507_1793"/>
<feBlend mode="normal" in="SourceGraphic" in2="effect1_dropShadow_13507_1793" result="shape"/>
</filter>
</defs>
</svg>
